<svg width="90" height="48" viewBox="0 0 90 48" fill="none" xmlns="http://www.w3.org/2000/svg">
<path d="M21.376 48.0001V45.7158H12.0367V37.7308H21.376V35.4465H9.66034V48.0001H21.376Z" fill="#328BE0"/>
<path d="M35.0422 48.0001V45.7158H25.7029V35.4465H23.3265V48.0001H35.0422Z" fill="#328BE0"/>
<path d="M48.7095 48.0001V35.4465H46.3643V45.7158H39.339V35.4465H36.9938V48.0001H48.7095Z" fill="#328BE0"/>
<path d="M62.3757 48.0001V40.005H61.2239V35.4465H50.66V48.0001H62.3757ZM53.0364 40.005V37.7308H58.8994V40.005H53.0364ZM53.0364 45.7158V42.2893H60.0616V45.7158H53.0364Z" fill="#328BE0"/>
<path d="M60.1765 15.9697H49.8203V21.0134H60.1765V15.9697Z" fill="#328BE0"/>
<path d="M58.4539 9.24823H49.8203V12.614H58.4539V9.24823Z" fill="#328BE0"/>
<path d="M0 0V30.2316H67.6998V41.7036L82.404 30.2316H90V0H0ZM23.3587 24.3793H19.9135V17.6578H9.53649V24.3793H6.10169V5.88257H9.55725V14.292H19.9343V5.88257H23.3795L23.3587 24.3793ZM43.5005 24.3793H26.2331V5.88257H29.6887V21.0438H40.0657V5.88257H43.5213L43.5005 24.3793ZM63.632 24.3793H46.375V5.88257H61.9405V12.6142H63.6631L63.632 24.3793ZM84.3134 13.5643L70.5016 18.2744V21.0135H80.9408V19.1335H84.3238V24.3793H67.0564V16.172L80.8578 11.4619V9.24837H70.377L70.0138 9.61224V11.5327H66.5583V8.23762L68.945 5.91289H84.3134V13.5643Z" fill="#328BE0"/>
</svg>
